<svg width="121" height="15" viewBox="0 0 121 15" fill="none" xmlns="http://www.w3.org/2000/svg">
<path fill-rule="evenodd" clip-rule="evenodd" d="M0.0260964 7.54094C0.0908698 3.58882 3.3523 0.43727 7.31048 0.501945C7.42427 0.498449 7.53981 0.496701 7.65535 0.500197C11.5348 0.568367 14.6246 3.76537 14.5563 7.63882V7.64232C14.5633 9.13856 14.1012 10.5998 13.2381 11.8234L13.9699 12.4439C14.2902 12.6991 14.4758 13.0872 14.4741 13.4962C14.4741 14.2164 13.8876 14.8002 13.1663 14.7984C12.8162 14.7984 12.4818 14.6568 12.2368 14.4086L11.3702 13.6255C10.1588 14.4383 8.73024 14.8683 7.27021 14.8596C7.15642 14.8631 7.04088 14.8648 6.92534 14.8613C3.04419 14.7932 -0.0456803 11.5979 0.0225944 7.72272V7.71573C0.0225944 7.65805 0.0225961 7.59862 0.0243467 7.54094M9.91016 11.507C10.3863 11.1609 10.7855 10.7187 11.0813 10.2083C11.5242 9.43921 11.7571 8.56873 11.7553 7.68252C11.7588 7.6126 11.7606 7.54269 11.7606 7.47277C11.7641 5.00816 9.76661 3.0085 7.29997 3.00501C4.78081 3.00501 2.88313 5.02214 2.88313 7.68252C2.8026 10.1524 4.74405 12.2185 7.21594 12.2989C8.17529 12.3303 9.11888 12.0524 9.90842 11.507V11.5105L9.91016 11.507Z" fill="#2A6AB4"/>
<path fill-rule="evenodd" clip-rule="evenodd" d="M24.3599 3.92792C23.6229 3.92093 23.0189 4.51348 23.0137 5.24937V10.009C23.0137 11.4598 22.1944 12.3478 20.8639 12.3478C19.5334 12.3478 18.8366 11.5228 18.8366 10.009V5.29481C18.8366 4.55893 18.2397 3.96113 17.5027 3.96113C16.7656 3.96113 16.1669 4.55718 16.1669 5.29307V10.7467C16.1669 13.2725 17.6252 14.8404 19.9746 14.8404C21.165 14.8596 22.2941 14.3125 23.0154 13.3668V13.4018C23.0154 14.1447 23.6176 14.746 24.3616 14.746C25.1057 14.746 25.7096 14.1447 25.7096 13.4018V5.29656C25.7201 4.55019 25.1214 3.93841 24.3739 3.92792H24.3616H24.3599Z" fill="#2A6AB4"/>
<path fill-rule="evenodd" clip-rule="evenodd" d="M27.1767 9.39025C27.1767 6.1985 29.4192 3.85974 32.348 3.85974C35.6165 3.85974 37.3793 6.5376 37.3793 9.07562V9.10534C37.3758 9.80277 36.8086 10.3656 36.1101 10.3621H29.8936C30.1002 11.6958 31.2661 12.6712 32.6176 12.6362C33.4772 12.6467 34.3105 12.3425 34.96 11.7832C35.1543 11.6136 35.4046 11.5245 35.662 11.5315C36.2677 11.5315 36.7561 12.0209 36.7561 12.6257C36.7526 12.9386 36.6248 13.2375 36.399 13.456C35.3574 14.3946 33.9954 14.898 32.5914 14.8596C32.4723 14.8631 32.3533 14.8631 32.2342 14.8578C29.3247 14.7425 27.0594 12.2953 27.1749 9.39025M32.3235 6.09886C31.0631 6.09886 30.109 7.02353 29.8516 8.47433H34.7411C34.5661 7.26649 33.8518 6.09886 32.3235 6.09886Z" fill="#2A6AB4"/>
<path fill-rule="evenodd" clip-rule="evenodd" d="M46.9676 3.92792C46.2306 3.92093 45.6266 4.51348 45.6213 5.24937C45.6213 5.24937 45.6213 5.2651 45.6213 5.27384V10.0108C45.6213 11.4616 44.802 12.3495 43.4768 12.3495C42.1516 12.3495 41.4443 11.5245 41.4443 10.0108V5.29656C41.4443 4.56068 40.8474 3.96288 40.1086 3.96288C39.3698 3.96288 38.7729 4.55893 38.7729 5.29656V10.7484C38.7729 13.2742 40.2311 14.8421 42.5805 14.8421C43.7709 14.8613 44.9001 14.3142 45.6213 13.3686V13.4036C45.6213 14.1464 46.2235 14.7477 46.9676 14.7477C47.7116 14.7477 48.3156 14.1464 48.3156 13.4036V5.29831C48.3261 4.55194 47.7273 3.94015 46.9798 3.92967H46.9676V3.92792Z" fill="#2A6AB4"/>
<path fill-rule="evenodd" clip-rule="evenodd" d="M49.7843 9.39025C49.7843 6.1985 52.0216 3.85974 54.9504 3.85974C58.2188 3.85974 59.987 6.5376 59.987 9.07562V9.10534C59.9835 9.80277 59.4163 10.3656 58.7178 10.3621H52.4838C52.6904 11.7028 53.8668 12.6799 55.2253 12.6362C56.0831 12.6432 56.9164 12.3408 57.5676 11.7832C57.7619 11.6136 58.0123 11.5245 58.2696 11.5315C58.8753 11.5315 59.3638 12.0209 59.3638 12.6257C59.3603 12.9386 59.2325 13.2375 59.0066 13.456C57.965 14.3946 56.603 14.898 55.199 14.8596C55.08 14.8631 54.9609 14.8631 54.8419 14.8578C51.9323 14.7425 49.667 12.2953 49.7826 9.392L49.7843 9.39025ZM54.9329 6.09886C53.6725 6.09886 52.7184 7.02353 52.461 8.47433H57.3505C57.1755 7.26649 56.4612 6.09886 54.9329 6.09886Z" fill="#2A6AB4"/>
<path fill-rule="evenodd" clip-rule="evenodd" d="M70.9285 7.37845C72.0331 6.7789 72.7001 5.60428 72.6511 4.34925C72.6686 3.47003 72.3202 2.62402 71.69 2.01049C70.6834 1.12428 69.3634 0.673313 68.0242 0.758962H63.1346C62.3871 0.75197 61.7762 1.35152 61.7691 2.09789V13.2848C61.7586 14.0311 62.3574 14.6429 63.1049 14.6534H68.2185C71.4694 14.6534 73.4073 13.1974 73.4073 10.7293C73.4073 9.10892 72.6161 8.02169 70.9302 7.37845M64.4529 3.17463H67.7266C69.1393 3.17463 69.9516 3.75844 69.9516 4.7775C69.9516 6.23878 68.4461 6.45553 67.5497 6.45553H64.4511V3.17463H64.4529ZM64.4529 12.1923H68.236C69.1376 12.1923 70.7079 11.9109 70.7079 10.4968C70.7079 9.0827 69.2794 8.79603 68.0714 8.79603H64.4511V12.194L64.4529 12.1923Z" fill="#2A6AB4"/>
<path fill-rule="evenodd" clip-rule="evenodd" d="M83.0166 3.92792C82.2796 3.92093 81.6756 4.51348 81.6703 5.24937V10.009C81.6703 11.4598 80.844 12.3478 79.5206 12.3478C78.1971 12.3478 77.4881 11.5228 77.4881 10.009V5.29481C77.4881 4.55893 76.8911 3.96113 76.1523 3.96113C75.4136 3.96113 74.8166 4.55718 74.8166 5.29481V10.7467C74.8166 13.2725 76.2749 14.8404 78.6295 14.8404C79.8199 14.8596 80.9491 14.3125 81.6703 13.3668V13.4018C81.7194 14.1429 82.3618 14.704 83.1041 14.6551C83.7781 14.6114 84.3138 14.0748 84.3593 13.4018V5.29656C84.3716 4.55368 83.7798 3.9419 83.0358 3.92792H83.0183H83.0166Z" fill="#2A6AB4"/>
<path fill-rule="evenodd" clip-rule="evenodd" d="M90.7351 8.2664L90.5355 8.20172C89.4641 7.85738 88.5381 7.55848 88.5381 6.92747C88.5381 6.41357 89.0422 6.07971 89.8143 6.07971C90.6371 6.12341 91.4389 6.35589 92.1566 6.75792C92.3212 6.84881 92.5067 6.89426 92.6958 6.89251C93.3068 6.90649 93.8127 6.42231 93.8267 5.81228V5.78256C93.8162 5.33683 93.5536 4.93481 93.1475 4.74777C92.1321 4.20416 91.0012 3.91225 89.8493 3.89478C87.6067 3.89478 86.0364 5.24594 86.0364 7.21588C86.0364 9.18582 87.752 9.92345 89.3503 10.3797L89.5972 10.4496C90.6336 10.766 91.5299 11.0334 91.5299 11.6941C91.5299 12.3549 90.9959 12.6363 90.1014 12.6363C89.0703 12.6013 88.0724 12.2657 87.2321 11.6714C87.0535 11.57 86.8522 11.5158 86.6456 11.5141C86.0381 11.5071 85.5392 11.9948 85.5322 12.6013V12.624C85.52 13.0103 85.716 13.3722 86.0469 13.5714C87.2251 14.3737 88.6151 14.809 90.0419 14.823C92.4892 14.823 94.007 13.5242 94.007 11.4022C94.0298 9.54764 92.4437 8.79952 90.7334 8.26815L90.7351 8.2664Z" fill="#2A6AB4"/>
<path fill-rule="evenodd" clip-rule="evenodd" d="M100.176 6.40831C100.824 6.39258 101.333 5.85596 101.318 5.20922C101.302 4.58695 100.8 4.08529 100.176 4.06955H98.4957V2.48941C98.4957 1.75352 97.8952 1.15747 97.1582 1.15747C96.4229 1.15747 95.826 1.75352 95.8242 2.48941V4.06781H95.5966C94.9506 4.08354 94.4395 4.62016 94.4552 5.2669C94.471 5.88917 94.9734 6.39083 95.5966 6.40656H95.8242V11.6347C95.8242 13.734 96.8728 14.7985 98.9351 14.7985C99.5058 14.8037 100.073 14.7093 100.61 14.517C101.195 14.3003 101.493 13.6501 101.276 13.0663C101.09 12.5698 100.584 12.2692 100.059 12.3426H100.024C99.8822 12.3688 99.7404 12.3828 99.5968 12.3828C98.8353 12.3828 98.4957 12.0385 98.4957 11.2659V6.40831H100.178H100.176Z" fill="#2A6AB4"/>
<path fill-rule="evenodd" clip-rule="evenodd" d="M101.892 9.39025C101.892 6.1985 104.129 3.85974 107.058 3.85974C110.326 3.85974 112.095 6.5376 112.095 9.07562V9.10534C112.091 9.80277 111.524 10.3656 110.825 10.3621H104.591C104.807 11.6958 105.98 12.6624 107.333 12.6187C108.191 12.6257 109.024 12.3233 109.675 11.7657C109.87 11.5962 110.12 11.507 110.377 11.514H110.395C111 11.5228 111.482 12.0209 111.473 12.624C111.471 12.9386 111.342 13.2375 111.116 13.456C110.074 14.3946 108.712 14.898 107.308 14.8596C107.189 14.8631 107.07 14.8631 106.951 14.8578C104.042 14.7442 101.776 12.2971 101.89 9.392L101.892 9.39025ZM107.041 6.09886C105.78 6.09886 104.826 7.02353 104.569 8.47433H109.458C109.281 7.26649 108.569 6.09886 107.041 6.09886Z" fill="#2A6AB4"/>
<path fill-rule="evenodd" clip-rule="evenodd" d="M118.696 3.92799C117.8 3.92799 116.898 4.58871 116.272 5.68293V5.31935C116.272 4.58347 115.676 3.98567 114.938 3.98392C114.201 3.98392 113.6 4.57822 113.6 5.31586V13.4019C113.59 14.122 114.167 14.7146 114.889 14.7233H114.931C115.666 14.7268 116.265 14.136 116.272 13.4019V10.3604C116.272 8.18599 117.226 6.85231 118.954 6.52369C119.584 6.4293 120.041 5.8787 120.02 5.24244C120.056 4.552 119.526 3.96294 118.835 3.92624C118.789 3.92449 118.742 3.92449 118.696 3.92624V3.92799Z" fill="#2A6AB4"/>
</svg>
